# xmcd
#
# Track frame offsets:
#	150
#	17827
#	30606
#	47195
#	64775
#	83851
#	96786
#	112138
#	124032
#	147897
#	160326
#	177774
#	193525
#	213183
#	232427
#	254973
#
# Disc length: 3571 seconds
#
# Revision: 1
# Processed by: cddbd v1.5.2PL0 Copyright (c) Steve Scherf et al.
# Submitted via: audiograbber 1.83.01
#
DISCID=ec0df110
DTITLE=Lucky Sale - Lucky Sale
DYEAR=2006
DGENRE=Country
TTITLE0=Up To You
TTITLE1=This Flower
TTITLE2=It´s Never Too Late
TTITLE3=Höre auf dein Herz
TTITLE4=I Need Someone
TTITLE5=Lord I Hope This Day Is Good
TTITLE6=Ich bleibe nicht hier
TTITLE7=I can´t Resist
TTITLE8=Fooly Truly Blue
TTITLE9=Ein Tag im Regen
TTITLE10=No Frontiers
TTITLE11=On This Night
TTITLE12=Angel
TTITLE13=Bitte warte dort auf mich
TTITLE14=Just One second
TTITLE15=Bonus: Gott ich hoff´ der Tag wird gut
EXTD=
EXTT0=
EXTT1=
EXTT2=
EXTT3=
EXTT4=
EXTT5=
EXTT6=
EXTT7=
EXTT8=
EXTT9=
EXTT10=
EXTT11=
EXTT12=
EXTT13=
EXTT14=
EXTT15=
PLAYORDER=
